<svg width="930.125146484375px" height="120.8px" xmlns="http://www.w3.org/2000/svg" viewBox="-215.0625732421875 14.600000000000001 930.125146484375 120.8" style="background: rgba(0, 0, 0, 0);" preserveAspectRatio="xMidYMid"><defs><filter id="editing-extrusion" x="-100%" y="-100%" width="300%" height="300%"><feFlood result="color1" flood-color="#444"></feFlood><feConvolveMatrix order="8,8" divisor="1" kernelMatrix="1 0 0 0 0 0 0 0 0 1 0 0 0 0 0 0 0 0 1 0 0 0 0 0 0 0 0 1 0 0 0 0 0 0 0 0 1 0 0 0 0 0 0 0 0 1 0 0 0 0 0 0 0 0 1 0 0 0 0 0 0 0 0 1" in="SourceAlpha" result="extrude"></feConvolveMatrix><feComposite in="color1" in2="extrude" result="comp-extrude" operator="in"></feComposite><feOffset dx="4" dy="4" in="comp-extrude" result="offset-extrude"></feOffset><feMerge><feMergeNode in="offset-extrude"></feMergeNode><feMergeNode in="SourceGraphic"></feMergeNode></feMerge></filter></defs><g filter="url(#editing-extrusion)"><g transform="translate(-82.95994874835014, 104.79000091552734)"><path d="M26.11-42.69L26.11-42.69L26.11-42.69Q41.79-42.69 41.79-31.62L41.79-31.62L41.79-31.62Q41.79-25.54 37.89-21.89L37.89-21.89L37.89-21.89Q34.05-18.24 27.33-18.24L27.33-18.24L27.33-18.24Q24.19-18.24 21.76-20.03L21.76-20.03L21.76-20.03Q20.61-20.80 19.84-21.82L19.84-21.82L19.84-21.82Q24.51-21.82 26.98-24.67L26.98-24.67L26.98-24.67Q29.44-27.52 29.44-33.09L29.44-33.09L29.44-33.09Q29.44-38.66 23.94-38.66L23.94-38.66L22.40-38.66L22.40-38.66Q22.02-38.66 21.70-38.59L21.70-38.59L14.34 0L0.45 0L8.32-41.92L8.32-41.92Q15.17-42.56 19.14-42.62L19.14-42.62L19.14-42.62Q23.10-42.69 26.11-42.69ZM62.14-17.98L62.14-17.98L62.14-17.98Q64.45-22.08 64.45-26.24L64.45-26.24L64.45-26.24Q64.45-28.99 62.46-28.99L62.46-28.99L62.46-28.99Q60.93-28.99 59.33-26.37L59.33-26.37L59.33-26.37Q57.66-23.74 57.15-20.35L57.15-20.35L53.82 0L40.58 1.28L47.10-32.64L57.66-33.92L56.51-27.46L56.51-27.46Q59.65-33.92 66.69-33.92L66.69-33.92L66.69-33.92Q70.40-33.92 72.42-32L72.42-32L72.42-32Q74.43-30.08 74.43-26.14L74.43-26.14L74.43-26.14Q74.43-22.21 71.84-19.71L71.84-19.71L71.84-19.71Q69.25-17.22 64.83-17.22L64.83-17.22L64.83-17.22Q62.91-17.22 62.14-17.98ZM89.41 1.28L89.41 1.28L89.41 1.28Q75.33 1.28 75.33-11.97L75.33-11.97L75.33-11.97Q75.33-21.38 80.51-27.46L80.51-27.46L80.51-27.46Q86.02-33.92 95.55-33.92L95.55-33.92L95.55-33.92Q102.46-33.92 105.98-30.72L105.98-30.72L105.98-30.72Q109.50-27.52 109.50-20.80L109.50-20.80L109.50-20.80Q109.50-10.56 104-4.61L104-4.61L104-4.61Q98.62 1.28 89.41 1.28ZM91.07-26.56L91.07-26.56L91.07-26.56Q90.30-24.83 89.70-22.24L89.70-22.24L89.70-22.24Q89.09-19.65 88.32-15.55L88.32-15.55L88.32-15.55Q87.55-11.46 87.55-6.40L87.55-6.40L87.55-6.40Q87.55-4.74 88.10-3.65L88.10-3.65L88.10-3.65Q88.64-2.56 90.11-2.56L90.11-2.56L90.11-2.56Q91.58-2.56 92.51-3.26L92.51-3.26L92.51-3.26Q93.44-3.97 94.14-5.63L94.14-5.63L94.14-5.63Q95.42-8.58 96.45-14.05L96.45-14.05L96.45-14.05Q97.47-19.52 97.57-21.89L97.57-21.89L97.57-21.89Q97.66-24.26 97.66-26.02L97.66-26.02L97.66-26.02Q97.66-27.78 97.15-28.93L97.15-28.93L97.15-28.93Q96.64-30.08 95.20-30.08L95.20-30.08L95.20-30.08Q93.76-30.08 92.80-29.18L92.80-29.18L92.80-29.18Q91.84-28.29 91.07-26.56ZM121.79 0.19L121.79 0.19L121.79 0.19Q119.74 1.28 116.93 1.28L116.93 1.28L116.93 1.28Q114.11 1.28 112.58-0.16L112.58-0.16L112.58-0.16Q111.04-1.60 111.04-4.38L111.04-4.38L111.04-4.38Q111.04-7.17 112.99-9.89L112.99-9.89L112.99-9.89Q114.94-12.61 117.86-14.14L117.86-14.14L117.86-14.14Q120.77-15.68 122.82-16.58L122.82-16.58L118.78-25.86L118.78-25.86Q117.70-28.22 115.65-28.22L115.65-28.22L115.14-28.16L114.94-28.16L114.94-28.16Q115.33-30.40 117.95-32.13L117.95-32.13L117.95-32.13Q120.58-33.92 123.58-33.92L123.58-33.92L123.58-33.92Q128.45-33.92 130.69-29.06L130.69-29.06L131.20-28.03L133.95-21.25L133.95-21.25Q135.68-22.02 136.42-23.46L136.42-23.46L136.42-23.46Q137.15-24.90 137.15-27.74L137.15-27.74L137.15-27.74Q137.15-30.59 135.62-32.38L135.62-32.38L135.62-32.38Q138.05-33.92 141.25-33.92L141.25-33.92L141.25-33.92Q147.01-33.92 147.01-28.35L147.01-28.35L147.01-28.35Q147.01-22.27 139.39-18.75L139.39-18.75L135.55-16.96L139.01-8.06L139.01-8.06Q140.03-5.38 141.89-4.22L141.89-4.22L141.89-4.22Q142.66-3.71 143.55-3.65L143.55-3.65L143.55-3.65Q141.63-0.51 137.47 0.90L137.47 0.90L137.47 0.90Q136.19 1.28 134.46 1.28L134.46 1.28L134.46 1.28Q132.74 1.28 130.75 0.10L130.75 0.10L130.75 0.10Q128.77-1.09 128.06-2.94L128.06-2.94L124.54-12.10L124.54-12.10Q120.96-10.50 120.96-4.67L120.96-4.67L120.96-4.67Q120.96-1.98 121.79 0.19ZM169.09-7.23L169.09-7.23L169.09-7.23Q165.76-3.78 159.68-3.78L159.68-3.78L159.68-3.78Q152.06-3.78 150.46-9.34L150.46-9.34L150.46-9.34Q149.95-11.01 149.95-12.86L149.95-12.86L149.95-12.86Q149.95-14.72 150.34-16.64L150.34-16.64L153.34-32.64L166.34-33.92L162.82-15.30L162.82-15.30Q162.69-14.46 162.50-13.57L162.50-13.57L162.50-13.57Q162.30-12.67 162.30-11.74L162.30-11.74L162.30-11.74Q162.30-10.82 162.62-10.21L162.62-10.21L162.62-10.21Q162.94-9.60 163.39-9.22L163.39-9.22L163.39-9.22Q164.16-8.70 165.54-8.70L165.54-8.70L165.54-8.70Q166.91-8.70 168.10-10.37L168.10-10.37L168.10-10.37Q169.28-12.03 169.86-14.91L169.86-14.91L173.38-32.64L185.98-33.92L181.18-8.77L181.18-8.77Q178.82 3.52 173.95 8.38L173.95 8.38L173.95 8.38Q171.46 10.88 168.22 11.87L168.22 11.87L168.22 11.87Q164.99 12.86 160.83 12.86L160.83 12.86L160.83 12.86Q154.11 12.86 150.27 10.75L150.27 10.75L150.27 10.75Q146.43 8.64 146.43 5.12L146.43 5.12L146.43 5.12Q146.43 2.50 148.42 0.99L148.42 0.99L148.42 0.99Q150.40-0.51 153.47-0.51L153.47-0.51L153.47-0.51Q156.16-0.51 158.21 0.64L158.21 0.64L158.21 0.64Q159.42 1.34 160 2.24L160 2.24L160 2.24Q158.53 3.52 158.53 5.63L158.53 5.63L158.53 5.63Q158.53 8.45 161.09 8.45L161.09 8.45L161.09 8.45Q165.31 8.45 167.74-1.28L167.74-1.28L167.74-1.28Q168.45-4.16 169.09-7.23ZM229.57 1.28L229.57 1.28L229.57 1.28Q221.38 1.28 220.61-10.37L220.61-10.37L209.60-10.37L209.60-10.37Q208.32-7.42 207.42-4.86L207.42-4.86L205.76 0L196.80 0L216.96-42.24L230.72-42.24L233.41-11.14L233.41-11.14Q234.05-4.42 236.61-2.43L236.61-2.43L236.61-2.43Q234.75 1.28 229.57 1.28ZM215.10-23.17L211.58-15.04L220.42-15.04L219.65-31.49L219.65-33.22L215.10-23.17ZM260.48-33.92L260.48-33.92L260.48-33.92Q262.78-33.92 264.58-33.41L264.58-33.41L264.58-33.41Q264.64-33.66 264.77-34.37L264.77-34.37L265.09-36.35L265.09-36.35Q265.34-37.63 265.73-39.74L265.73-39.74L266.75-44.80L279.49-46.08L272.38-8.96L272.38-8.96Q272.32-8.58 272.32-7.94L272.32-7.94L272.32-6.91L272.32-6.91Q272.32-5.50 273.02-4.45L273.02-4.45L273.02-4.45Q273.73-3.39 274.88-3.39L274.88-3.39L274.88-3.39Q273.60-0.38 269.70 0.90L269.70 0.90L269.70 0.90Q268.35 1.28 266.46 1.28L266.46 1.28L266.46 1.28Q264.58 1.28 262.85 0.29L262.85 0.29L262.85 0.29Q261.12-0.70 260.61-2.37L260.61-2.37L260.61-2.37Q259.58-0.70 257.54 0.29L257.54 0.29L257.54 0.29Q255.49 1.28 252.51 1.28L252.51 1.28L252.51 1.28Q249.54 1.28 247.07 0.51L247.07 0.51L247.07 0.51Q244.61-0.26 243.07-1.92L243.07-1.92L243.07-1.92Q240.26-5.18 240.26-12.61L240.26-12.61L240.26-12.61Q240.26-22.21 245.89-28.03L245.89-28.03L245.89-28.03Q251.52-33.92 260.48-33.92ZM260.03-30.08L260.03-30.08L260.03-30.08Q257.66-30.08 256.38-27.52L256.38-27.52L256.38-27.52Q255.10-24.96 253.79-18.62L253.79-18.62L253.79-18.62Q252.48-12.29 252.48-6.59L252.48-6.59L252.48-6.59Q252.48-2.69 254.78-2.69L254.78-2.69L254.78-2.69Q256.83-2.69 258.27-4.74L258.27-4.74L258.27-4.74Q259.71-6.78 260.29-10.18L260.29-10.18L263.74-28.93L263.74-28.93Q262.40-30.08 260.03-30.08ZM326.40 1.28L326.40 1.28L326.40 1.28Q318.66 1.28 318.66-4.74L318.66-4.74L318.66-4.74Q318.66-7.36 319.78-12.45L319.78-12.45L319.78-12.45Q320.90-17.54 321.28-19.58L321.28-19.58L321.28-19.58Q322.18-24.26 322.18-25.73L322.18-25.73L322.18-25.73Q322.18-28.99 319.74-28.99L319.74-28.99L319.74-28.99Q318.14-28.99 316.61-26.78L316.61-26.78L316.61-26.78Q315.07-24.58 314.37-20.16L314.37-20.16L310.40 0L297.92 1.28L301.38-16.13L301.38-16.13Q301.95-19.01 302.46-22.27L302.46-22.27L302.46-22.27Q302.98-25.54 302.98-26.05L302.98-26.05L302.98-26.05Q302.98-28.99 300.80-28.99L300.80-28.99L300.80-28.99Q299.33-28.99 297.73-26.82L297.73-26.82L297.73-26.82Q296.13-24.64 295.23-20.16L295.23-20.16L291.33 0L278.72 1.28L285.44-32.64L295.87-33.92L294.78-27.46L294.78-27.46Q296.45-30.91 299.52-32.42L299.52-32.42L299.52-32.42Q302.59-33.92 307.39-33.92L307.39-33.92L307.39-33.92Q310.14-33.92 311.94-32.58L311.94-32.58L311.94-32.58Q313.73-31.23 314.30-29.06L314.30-29.06L314.30-29.06Q315.39-31.30 318.18-32.61L318.18-32.61L318.18-32.61Q320.96-33.92 324.38-33.92L324.38-33.92L324.38-33.92Q327.81-33.92 329.50-33.18L329.50-33.18L329.50-33.18Q331.20-32.45 332.22-31.23L332.22-31.23L332.22-31.23Q333.95-28.99 333.95-24.90L333.95-24.90L333.95-24.90Q333.95-20.86 332.22-12.48L332.22-12.48L332.22-12.48Q331.33-8.38 331.33-6.88L331.33-6.88L331.33-6.88Q331.33-5.38 332.19-4.48L332.19-4.48L332.19-4.48Q333.06-3.58 334.34-3.46L334.34-3.46L334.34-3.46Q333.70-1.28 331.49 0L331.49 0L331.49 0Q329.28 1.28 326.40 1.28ZM354.62-3.52L354.62-3.52L354.62-3.52Q352.64 1.28 346.30 1.28L346.30 1.28L346.30 1.28Q343.04 1.28 340.99-0.96L340.99-0.96L340.99-0.96Q339.26-2.94 339.26-4.93L339.26-4.93L339.26-4.93Q339.26-10.11 341.63-20.22L341.63-20.22L344-32.64L356.99-33.92L353.09-13.70L353.09-13.70Q352-8.96 352-7.30L352-7.30L352-7.30Q352-3.65 354.62-3.52ZM345.15-41.54L345.15-41.54L345.15-41.54Q345.15-44.03 347.23-45.38L347.23-45.38L347.23-45.38Q349.31-46.72 352.32-46.72L352.32-46.72L352.32-46.72Q355.33-46.72 357.15-45.38L357.15-45.38L357.15-45.38Q358.98-44.03 358.98-41.54L358.98-41.54L358.98-41.54Q358.98-39.04 356.96-37.76L356.96-37.76L356.96-37.76Q354.94-36.48 351.94-36.48L351.94-36.48L351.94-36.48Q348.93-36.48 347.04-37.76L347.04-37.76L347.04-37.76Q345.15-39.04 345.15-41.54ZM387.14 1.28L387.14 1.28L387.14 1.28Q379.39 1.28 379.39-4.74L379.39-4.74L379.39-4.74Q379.46-6.40 379.97-9.22L379.97-9.22L381.12-15.10L381.12-15.10Q382.85-23.42 382.85-25.28L382.85-25.28L382.85-25.28Q382.85-28.99 380.67-28.99L380.67-28.99L380.67-28.99Q377.02-28.99 375.10-19.46L375.10-19.46L371.33 0L358.46 1.28L365.12-32.70L375.62-33.92L374.59-27.65L374.59-27.65Q377.60-33.92 386.82-33.92L386.82-33.92L386.82-33.92Q391.30-33.92 393.18-32.03L393.18-32.03L393.18-32.03Q395.07-30.14 395.07-25.92L395.07-25.92L395.07-25.92Q395.07-21.95 393.02-12.67L393.02-12.67L393.02-12.67Q392.06-8.51 392.06-6.94L392.06-6.94L392.06-6.94Q392.06-5.38 392.93-4.48L392.93-4.48L392.93-4.48Q393.79-3.58 395.07-3.46L395.07-3.46L395.07-3.46Q394.43-1.28 392.22 0L392.22 0L392.22 0Q390.02 1.28 387.14 1.28ZM415.55-3.52L415.55-3.52L415.55-3.52Q413.57 1.28 407.23 1.28L407.23 1.28L407.23 1.28Q403.97 1.28 401.92-0.96L401.92-0.96L401.92-0.96Q400.19-2.94 400.19-4.93L400.19-4.93L400.19-4.93Q400.19-10.11 402.56-20.22L402.56-20.22L404.93-32.64L417.92-33.92L414.02-13.70L414.02-13.70Q412.93-8.96 412.93-7.30L412.93-7.30L412.93-7.30Q412.93-3.65 415.55-3.52ZM406.08-41.54L406.08-41.54L406.08-41.54Q406.08-44.03 408.16-45.38L408.16-45.38L408.16-45.38Q410.24-46.72 413.25-46.72L413.25-46.72L413.25-46.72Q416.26-46.72 418.08-45.38L418.08-45.38L418.08-45.38Q419.90-44.03 419.90-41.54L419.90-41.54L419.90-41.54Q419.90-39.04 417.89-37.76L417.89-37.76L417.89-37.76Q415.87-36.48 412.86-36.48L412.86-36.48L412.86-36.48Q409.86-36.48 407.97-37.76L407.97-37.76L407.97-37.76Q406.08-39.04 406.08-41.54ZM440.13-22.46L440.13-22.46L440.13-22.46Q441.02-24.83 441.02-26.88L441.02-26.88L441.02-26.88Q441.02-30.66 437.95-30.66L437.95-30.66L437.95-30.66Q436.35-30.66 435.04-29.22L435.04-29.22L435.04-29.22Q433.73-27.78 433.73-25.98L433.73-25.98L433.73-25.98Q433.73-24.70 434.75-23.68L434.75-23.68L434.75-23.68Q436.22-22.27 440-19.97L440-19.97L440-19.97Q443.78-17.66 445.22-15.78L445.22-15.78L445.22-15.78Q446.66-13.89 446.66-11.30L446.66-11.30L446.66-11.30Q446.66-8.70 445.41-6.34L445.41-6.34L445.41-6.34Q444.16-3.97 441.92-2.30L441.92-2.30L441.92-2.30Q437.12 1.28 429.44 1.28L429.44 1.28L429.44 1.28Q425.28 1.28 422.08-0.90L422.08-0.90L422.08-0.90Q418.88-3.01 418.88-5.50L418.88-5.50L418.88-5.50Q418.88-8 420.70-9.47L420.70-9.47L420.70-9.47Q422.53-10.94 425.22-10.94L425.22-10.94L425.22-10.94Q427.90-10.94 429.57-9.92L429.57-9.92L429.57-9.92Q428.74-7.81 428.74-6.40L428.74-6.40L428.74-6.40Q428.74-2.18 432.32-2.18L432.32-2.18L432.32-2.18Q433.86-2.18 434.88-3.14L434.88-3.14L434.88-3.14Q435.90-4.10 435.90-5.76L435.90-5.76L435.90-5.76Q435.90-9.02 430.40-12.48L430.40-12.48L430.40-12.48Q425.92-15.42 424.90-16.58L424.90-16.58L424.90-16.58Q423.17-18.62 423.17-21.18L423.17-21.18L423.17-21.18Q423.17-23.74 424.38-26.18L424.38-26.18L424.38-26.18Q425.60-28.61 427.84-30.34L427.84-30.34L427.84-30.34Q432.51-33.92 440.64-33.92L440.64-33.92L440.64-33.92Q444.80-33.92 447.26-32.26L447.26-32.26L447.26-32.26Q449.73-30.59 449.73-27.78L449.73-27.78L449.73-27.78Q449.73-24.96 448.03-23.36L448.03-23.36L448.03-23.36Q446.34-21.76 443.26-21.76L443.26-21.76L443.26-21.76Q441.15-21.76 440.13-22.46ZM453.12-6.40L453.12-6.40L453.12-6.40Q453.12-8.13 454.02-12.48L454.02-12.48L457.41-29.76L453.63-29.76L453.89-31.68L453.89-31.68Q461.57-33.98 468.99-39.62L468.99-39.62L472.06-39.62L470.53-32.64L475.52-32.64L474.94-29.76L470.02-29.76L466.75-12.48L466.75-12.48Q465.92-8.51 465.92-7.17L465.92-7.17L465.92-7.17Q465.92-4.10 468.61-3.46L468.61-3.46L468.61-3.46Q467.97-1.28 465.66 0L465.66 0L465.66 0Q463.36 1.28 460.10 1.28L460.10 1.28L460.10 1.28Q456.83 1.28 454.98-0.77L454.98-0.77L454.98-0.77Q453.12-2.82 453.12-6.40ZM495.23-17.98L495.23-17.98L495.23-17.98Q497.54-22.08 497.54-26.24L497.54-26.24L497.54-26.24Q497.54-28.99 495.55-28.99L495.55-28.99L495.55-28.99Q494.02-28.99 492.42-26.37L492.42-26.37L492.42-26.37Q490.75-23.74 490.24-20.35L490.24-20.35L486.91 0L473.66 1.28L480.19-32.64L490.75-33.92L489.60-27.46L489.60-27.46Q492.74-33.92 499.78-33.92L499.78-33.92L499.78-33.92Q503.49-33.92 505.50-32L505.50-32L505.50-32Q507.52-30.08 507.52-26.14L507.52-26.14L507.52-26.14Q507.52-22.21 504.93-19.71L504.93-19.71L504.93-19.71Q502.34-17.22 497.92-17.22L497.92-17.22L497.92-17.22Q496.00-17.22 495.23-17.98ZM511.33-1.92L511.33-1.92L511.33-1.92Q509.82-3.58 509.15-6.21L509.15-6.21L509.15-6.21Q508.48-8.83 508.48-13.12L508.48-13.12L508.48-13.12Q508.48-17.41 509.95-21.31L509.95-21.31L509.95-21.31Q511.42-25.22 514.11-28.03L514.11-28.03L514.11-28.03Q519.62-33.92 528.70-33.92L528.70-33.92L528.70-33.92Q531.97-33.92 534.34-32.83L534.34-32.83L545.28-33.92L540.54-8.96L540.54-8.96Q540.35-8.19 540.35-6.78L540.35-6.78L540.35-6.78Q540.35-5.38 541.22-4.48L541.22-4.48L541.22-4.48Q542.08-3.58 543.36-3.46L543.36-3.46L543.36-3.46Q542.72-1.28 540.38 0L540.38 0L540.38 0Q538.05 1.28 535.42 1.28L535.42 1.28L535.42 1.28Q532.80 1.28 531.04 0.29L531.04 0.29L531.04 0.29Q529.28-0.70 528.77-2.37L528.77-2.37L528.77-2.37Q527.74-0.77 525.57 0.26L525.57 0.26L525.57 0.26Q523.39 1.28 520.48 1.28L520.48 1.28L520.48 1.28Q517.57 1.28 515.20 0.51L515.20 0.51L515.20 0.51Q512.83-0.26 511.33-1.92ZM524.83-27.90L524.83-27.90L524.83-27.90Q524.10-26.75 523.46-24.80L523.46-24.80L523.46-24.80Q522.82-22.85 521.76-17.63L521.76-17.63L521.76-17.63Q520.70-12.42 520.70-8.70L520.70-8.70L520.70-8.70Q520.70-4.99 521.28-3.90L521.28-3.90L521.28-3.90Q521.86-2.82 522.88-2.82L522.88-2.82L522.88-2.82Q524.93-2.82 526.43-4.77L526.43-4.77L526.43-4.77Q527.94-6.72 528.51-10.18L528.51-10.18L531.90-28.93L531.90-28.93Q530.56-30.08 528.99-30.08L528.99-30.08L528.99-30.08Q527.42-30.08 526.50-29.57L526.50-29.57L526.50-29.57Q525.57-29.06 524.83-27.90ZM549.76-6.40L549.76-6.40L549.76-6.40Q549.76-8.13 550.66-12.48L550.66-12.48L554.05-29.76L550.27-29.76L550.53-31.68L550.53-31.68Q558.21-33.98 565.63-39.62L565.63-39.62L568.70-39.62L567.17-32.64L572.16-32.64L571.58-29.76L566.66-29.76L563.39-12.48L563.39-12.48Q562.56-8.51 562.56-7.17L562.56-7.17L562.56-7.17Q562.56-4.10 565.25-3.46L565.25-3.46L565.25-3.46Q564.61-1.28 562.30 0L562.30 0L562.30 0Q560.00 1.28 556.74 1.28L556.74 1.28L556.74 1.28Q553.47 1.28 551.62-0.77L551.62-0.77L551.62-0.77Q549.76-2.82 549.76-6.40ZM587.20-3.52L587.20-3.52L587.20-3.52Q585.22 1.28 578.88 1.28L578.88 1.28L578.88 1.28Q575.62 1.28 573.57-0.96L573.57-0.96L573.57-0.96Q571.84-2.94 571.84-4.93L571.84-4.93L571.84-4.93Q571.84-10.11 574.21-20.22L574.21-20.22L576.58-32.64L589.57-33.92L585.66-13.70L585.66-13.70Q584.58-8.96 584.58-7.30L584.58-7.30L584.58-7.30Q584.58-3.65 587.20-3.52ZM577.73-41.54L577.73-41.54L577.73-41.54Q577.73-44.03 579.81-45.38L579.81-45.38L579.81-45.38Q581.89-46.72 584.90-46.72L584.90-46.72L584.90-46.72Q587.90-46.72 589.73-45.38L589.73-45.38L589.73-45.38Q591.55-44.03 591.55-41.54L591.55-41.54L591.55-41.54Q591.55-39.04 589.54-37.76L589.54-37.76L589.54-37.76Q587.52-36.48 584.51-36.48L584.51-36.48L584.51-36.48Q581.50-36.48 579.62-37.76L579.62-37.76L579.62-37.76Q577.73-39.04 577.73-41.54ZM606.59 1.28L606.59 1.28L606.59 1.28Q592.51 1.28 592.51-11.97L592.51-11.97L592.51-11.97Q592.51-21.38 597.70-27.46L597.70-27.46L597.70-27.46Q603.20-33.92 612.74-33.92L612.74-33.92L612.74-33.92Q619.65-33.92 623.17-30.72L623.17-30.72L623.17-30.72Q626.69-27.52 626.69-20.80L626.69-20.80L626.69-20.80Q626.69-10.56 621.18-4.61L621.18-4.61L621.18-4.61Q615.81 1.28 606.59 1.28ZM608.26-26.56L608.26-26.56L608.26-26.56Q607.49-24.83 606.88-22.24L606.88-22.24L606.88-22.24Q606.27-19.65 605.50-15.55L605.50-15.55L605.50-15.55Q604.74-11.46 604.74-6.40L604.74-6.40L604.74-6.40Q604.74-4.74 605.28-3.65L605.28-3.65L605.28-3.65Q605.82-2.56 607.30-2.56L607.30-2.56L607.30-2.56Q608.77-2.56 609.70-3.26L609.70-3.26L609.70-3.26Q610.62-3.97 611.33-5.63L611.33-5.63L611.33-5.63Q612.61-8.58 613.63-14.05L613.63-14.05L613.63-14.05Q614.66-19.52 614.75-21.89L614.75-21.89L614.75-21.89Q614.85-24.26 614.85-26.02L614.85-26.02L614.85-26.02Q614.85-27.78 614.34-28.93L614.34-28.93L614.34-28.93Q613.82-30.08 612.38-30.08L612.38-30.08L612.38-30.08Q610.94-30.08 609.98-29.18L609.98-29.18L609.98-29.18Q609.02-28.29 608.26-26.56ZM657.54 1.28L657.54 1.28L657.54 1.28Q649.79 1.28 649.79-4.74L649.79-4.74L649.79-4.74Q649.86-6.40 650.37-9.22L650.37-9.22L651.52-15.10L651.52-15.10Q653.25-23.42 653.25-25.28L653.25-25.28L653.25-25.28Q653.25-28.99 651.07-28.99L651.07-28.99L651.07-28.99Q647.42-28.99 645.50-19.46L645.50-19.46L641.73 0L628.86 1.28L635.52-32.70L646.02-33.92L644.99-27.65L644.99-27.65Q648.00-33.92 657.22-33.92L657.22-33.92L657.22-33.92Q661.70-33.92 663.58-32.03L663.58-32.03L663.58-32.03Q665.47-30.14 665.47-25.92L665.47-25.92L665.47-25.92Q665.47-21.95 663.42-12.67L663.42-12.67L663.42-12.67Q662.46-8.51 662.46-6.94L662.46-6.94L662.46-6.94Q662.46-5.38 663.33-4.48L663.33-4.48L663.33-4.48Q664.19-3.58 665.47-3.46L665.47-3.46L665.47-3.46Q664.83-1.28 662.62 0L662.62 0L662.62 0Q660.42 1.28 657.54 1.28Z" fill="#ccc"></path></g></g><style>text {
  font-size: 64px;
  font-family: Arial Black;
  dominant-baseline: central;
  text-anchor: middle;
}</style></svg>